<?xml version="1.0" encoding="UTF-8" standalone="no"?>
<!DOCTYPE svg PUBLIC "-//W3C//DTD SVG 1.1//EN"
 "http://www.w3.org/Graphics/SVG/1.1/DTD/svg11.dtd">
<!-- Generated by graphviz version 2.40.1 (20161225.0304)
 -->
<!-- Title: %3 Pages: 1 -->
<svg width="808pt" height="548pt"
 viewBox="0.00 0.00 808.28 548.00" xmlns="http://www.w3.org/2000/svg" xmlns:xlink="http://www.w3.org/1999/xlink">
<g id="graph0" class="graph" transform="scale(1 1) rotate(0) translate(4 544)">
<title>%3</title>
<polygon fill="#ffffff" stroke="transparent" points="-4,4 -4,-544 804.2832,-544 804.2832,4 -4,4"/>
<!-- [root] module.testvpc.aws_instance.machine1 -->
<g id="node1" class="node">
<title>[root] module.testvpc.aws_instance.machine1</title>
<polygon fill="none" stroke="#000000" points="554.0372,-396 316.6151,-396 316.6151,-360 554.0372,-360 554.0372,-396"/>
<text text-anchor="middle" x="435.3262" y="-373.8" font-family="Times,serif" font-size="14.00" fill="#000000">module.testvpc.aws_instance.machine1</text>
</g>
<!-- [root] module.testvpc.aws_security_group.mysg -->
<g id="node5" class="node">
<title>[root] module.testvpc.aws_security_group.mysg</title>
<polygon fill="none" stroke="#000000" points="658.0646,-252 406.5878,-252 406.5878,-216 658.0646,-216 658.0646,-252"/>
<text text-anchor="middle" x="532.3262" y="-229.8" font-family="Times,serif" font-size="14.00" fill="#000000">module.testvpc.aws_security_group.mysg</text>
</g>
<!-- [root] module.testvpc.aws_instance.machine1&#45;&gt;[root] module.testvpc.aws_security_group.mysg -->
<g id="edge4" class="edge">
<title>[root] module.testvpc.aws_instance.machine1&#45;&gt;[root] module.testvpc.aws_security_group.mysg</title>
<path fill="none" stroke="#000000" d="M473.1154,-359.8215C487.7723,-350.9597 503.3881,-338.9508 513.3262,-324 525.5023,-305.6823 530.0763,-281.023 531.7037,-262.1484"/>
<polygon fill="#000000" stroke="#000000" points="535.2031,-262.2678 532.3456,-252.0656 528.2173,-261.823 535.2031,-262.2678"/>
</g>
<!-- [root] module.testvpc.aws_subnet.pubsubnet -->
<g id="node6" class="node">
<title>[root] module.testvpc.aws_subnet.pubsubnet</title>
<polygon fill="none" stroke="#000000" points="503.8506,-324 272.8018,-324 272.8018,-288 503.8506,-288 503.8506,-324"/>
<text text-anchor="middle" x="388.3262" y="-301.8" font-family="Times,serif" font-size="14.00" fill="#000000">module.testvpc.aws_subnet.pubsubnet</text>
</g>
<!-- [root] module.testvpc.aws_instance.machine1&#45;&gt;[root] module.testvpc.aws_subnet.pubsubnet -->
<g id="edge5" class="edge">
<title>[root] module.testvpc.aws_instance.machine1&#45;&gt;[root] module.testvpc.aws_subnet.pubsubnet</title>
<path fill="none" stroke="#000000" d="M423.4661,-359.8314C418.1632,-351.7079 411.8025,-341.9637 405.9589,-333.0118"/>
<polygon fill="#000000" stroke="#000000" points="408.743,-330.8739 400.3459,-324.4133 402.8814,-334.7003 408.743,-330.8739"/>
</g>
<!-- [root] module.testvpc.aws_internet_gateway.ig -->
<g id="node2" class="node">
<title>[root] module.testvpc.aws_internet_gateway.ig</title>
<polygon fill="none" stroke="#000000" points="303.1281,-252 59.5242,-252 59.5242,-216 303.1281,-216 303.1281,-252"/>
<text text-anchor="middle" x="181.3262" y="-229.8" font-family="Times,serif" font-size="14.00" fill="#000000">module.testvpc.aws_internet_gateway.ig</text>
</g>
<!-- [root] module.testvpc.aws_vpc.testvpc -->
<g id="node8" class="node">
<title>[root] module.testvpc.aws_vpc.testvpc</title>
<polygon fill="none" stroke="#000000" points="553.6163,-180 357.036,-180 357.036,-144 553.6163,-144 553.6163,-180"/>
<text text-anchor="middle" x="455.3262" y="-157.8" font-family="Times,serif" font-size="14.00" fill="#000000">module.testvpc.aws_vpc.testvpc</text>
</g>
<!-- [root] module.testvpc.aws_internet_gateway.ig&#45;&gt;[root] module.testvpc.aws_vpc.testvpc -->
<g id="edge6" class="edge">
<title>[root] module.testvpc.aws_internet_gateway.ig&#45;&gt;[root] module.testvpc.aws_vpc.testvpc</title>
<path fill="none" stroke="#000000" d="M250.1143,-215.9243C288.6302,-205.8033 336.8033,-193.1447 376.7945,-182.6361"/>
<polygon fill="#000000" stroke="#000000" points="377.7276,-186.0098 386.5098,-180.0831 375.9486,-179.2396 377.7276,-186.0098"/>
</g>
<!-- [root] module.testvpc.aws_route_table.publicrt -->
<g id="node3" class="node">
<title>[root] module.testvpc.aws_route_table.publicrt</title>
<polygon fill="none" stroke="#000000" points="255.265,-324 11.3873,-324 11.3873,-288 255.265,-288 255.265,-324"/>
<text text-anchor="middle" x="133.3262" y="-301.8" font-family="Times,serif" font-size="14.00" fill="#000000">module.testvpc.aws_route_table.publicrt</text>
</g>
<!-- [root] module.testvpc.aws_route_table.publicrt&#45;&gt;[root] module.testvpc.aws_internet_gateway.ig -->
<g id="edge7" class="edge">
<title>[root] module.testvpc.aws_route_table.publicrt&#45;&gt;[root] module.testvpc.aws_internet_gateway.ig</title>
<path fill="none" stroke="#000000" d="M145.4386,-287.8314C150.8543,-279.7079 157.3504,-269.9637 163.3183,-261.0118"/>
<polygon fill="#000000" stroke="#000000" points="166.4158,-262.6753 169.0507,-252.4133 160.5914,-258.7923 166.4158,-262.6753"/>
</g>
<!-- [root] module.testvpc.aws_route_table_association.rtpub -->
<g id="node4" class="node">
<title>[root] module.testvpc.aws_route_table_association.rtpub</title>
<polygon fill="none" stroke="#000000" points="298.4787,-396 .1736,-396 .1736,-360 298.4787,-360 298.4787,-396"/>
<text text-anchor="middle" x="149.3262" y="-373.8" font-family="Times,serif" font-size="14.00" fill="#000000">module.testvpc.aws_route_table_association.rtpub</text>
</g>
<!-- [root] module.testvpc.aws_route_table_association.rtpub&#45;&gt;[root] module.testvpc.aws_route_table.publicrt -->
<g id="edge8" class="edge">
<title>[root] module.testvpc.aws_route_table_association.rtpub&#45;&gt;[root] module.testvpc.aws_route_table.publicrt</title>
<path fill="none" stroke="#000000" d="M145.2887,-359.8314C143.5775,-352.131 141.5427,-342.9743 139.641,-334.4166"/>
<polygon fill="#000000" stroke="#000000" points="143.004,-333.4159 137.418,-324.4133 136.1707,-334.9344 143.004,-333.4159"/>
</g>
<!-- [root] module.testvpc.aws_route_table_association.rtpub&#45;&gt;[root] module.testvpc.aws_subnet.pubsubnet -->
<g id="edge9" class="edge">
<title>[root] module.testvpc.aws_route_table_association.rtpub&#45;&gt;[root] module.testvpc.aws_subnet.pubsubnet</title>
<path fill="none" stroke="#000000" d="M209.3275,-359.9243C242.5684,-349.9103 284.0557,-337.412 318.7173,-326.97"/>
<polygon fill="#000000" stroke="#000000" points="319.7348,-330.3189 328.3002,-324.0831 317.7156,-323.6165 319.7348,-330.3189"/>
</g>
<!-- [root] module.testvpc.aws_security_group.mysg&#45;&gt;[root] module.testvpc.aws_vpc.testvpc -->
<g id="edge10" class="edge">
<title>[root] module.testvpc.aws_security_group.mysg&#45;&gt;[root] module.testvpc.aws_vpc.testvpc</title>
<path fill="none" stroke="#000000" d="M512.8958,-215.8314C503.5942,-207.1337 492.3058,-196.5783 482.1976,-187.1265"/>
<polygon fill="#000000" stroke="#000000" points="484.4451,-184.4363 474.7503,-180.1628 479.6641,-189.5493 484.4451,-184.4363"/>
</g>
<!-- [root] module.testvpc.aws_subnet.pubsubnet&#45;&gt;[root] module.testvpc.aws_vpc.testvpc -->
<g id="edge11" class="edge">
<title>[root] module.testvpc.aws_subnet.pubsubnet&#45;&gt;[root] module.testvpc.aws_vpc.testvpc</title>
<path fill="none" stroke="#000000" d="M386.5039,-287.7262C385.422,-268.7771 386.024,-238.7901 397.3262,-216 402.8179,-204.9262 411.5987,-194.9741 420.6836,-186.7203"/>
<polygon fill="#000000" stroke="#000000" points="422.9886,-189.3545 428.3208,-180.1993 418.4431,-184.0311 422.9886,-189.3545"/>
</g>
<!-- [root] module.testvpc.aws_subnet.pvtsubnet -->
<g id="node7" class="node">
<title>[root] module.testvpc.aws_subnet.pvtsubnet</title>
<polygon fill="none" stroke="#000000" points="800.2403,-396 572.4121,-396 572.4121,-360 800.2403,-360 800.2403,-396"/>
<text text-anchor="middle" x="686.3262" y="-373.8" font-family="Times,serif" font-size="14.00" fill="#000000">module.testvpc.aws_subnet.pvtsubnet</text>
</g>
<!-- [root] module.testvpc.aws_subnet.pvtsubnet&#45;&gt;[root] module.testvpc.aws_vpc.testvpc -->
<g id="edge12" class="edge">
<title>[root] module.testvpc.aws_subnet.pvtsubnet&#45;&gt;[root] module.testvpc.aws_vpc.testvpc</title>
<path fill="none" stroke="#000000" d="M690.1638,-359.8427C695.994,-326.8443 702.9523,-256.6961 667.3262,-216 652.877,-199.4945 608.3034,-186.8898 563.7331,-178.0262"/>
<polygon fill="#000000" stroke="#000000" points="564.1153,-174.5355 553.6335,-176.0792 562.7902,-181.4089 564.1153,-174.5355"/>
</g>
<!-- [root] module.testvpc.var.vpccidr -->
<g id="node9" class="node">
<title>[root] module.testvpc.var.vpccidr</title>
<polygon fill="none" stroke="#000000" points="343.0646,-108 181.5877,-108 181.5877,-72 349.0646,-72 349.0646,-102 343.0646,-108"/>
<polyline fill="none" stroke="#000000" points="343.0646,-108 343.0646,-102 "/>
<polyline fill="none" stroke="#000000" points="349.0646,-102 343.0646,-102 "/>
<text text-anchor="middle" x="265.3262" y="-85.8" font-family="Times,serif" font-size="14.00" fill="#000000">module.testvpc.var.vpccidr</text>
</g>
<!-- [root] module.testvpc.aws_vpc.testvpc&#45;&gt;[root] module.testvpc.var.vpccidr -->
<g id="edge13" class="edge">
<title>[root] module.testvpc.aws_vpc.testvpc&#45;&gt;[root] module.testvpc.var.vpccidr</title>
<path fill="none" stroke="#000000" d="M407.3811,-143.8314C381.518,-134.0306 349.4299,-121.8709 322.2982,-111.5894"/>
<polygon fill="#000000" stroke="#000000" points="323.5178,-108.3087 312.9264,-108.038 321.0373,-114.8545 323.5178,-108.3087"/>
</g>
<!-- [root] module.testvpc.var.vpcname -->
<g id="node10" class="node">
<title>[root] module.testvpc.var.vpcname</title>
<polygon fill="none" stroke="#000000" points="537.1163,-108 367.536,-108 367.536,-72 543.1163,-72 543.1163,-102 537.1163,-108"/>
<polyline fill="none" stroke="#000000" points="537.1163,-108 537.1163,-102 "/>
<polyline fill="none" stroke="#000000" points="543.1163,-102 537.1163,-102 "/>
<text text-anchor="middle" x="455.3262" y="-85.8" font-family="Times,serif" font-size="14.00" fill="#000000">module.testvpc.var.vpcname</text>
</g>
<!-- [root] module.testvpc.aws_vpc.testvpc&#45;&gt;[root] module.testvpc.var.vpcname -->
<g id="edge14" class="edge">
<title>[root] module.testvpc.aws_vpc.testvpc&#45;&gt;[root] module.testvpc.var.vpcname</title>
<path fill="none" stroke="#000000" d="M455.3262,-143.8314C455.3262,-136.131 455.3262,-126.9743 455.3262,-118.4166"/>
<polygon fill="#000000" stroke="#000000" points="458.8263,-118.4132 455.3262,-108.4133 451.8263,-118.4133 458.8263,-118.4132"/>
</g>
<!-- [root] provider.aws -->
<g id="node11" class="node">
<title>[root] provider.aws</title>
<polygon fill="none" stroke="#000000" points="639.3262,-108 560.7178,-90 639.3262,-72 717.9345,-90 639.3262,-108"/>
<text text-anchor="middle" x="639.3262" y="-85.8" font-family="Times,serif" font-size="14.00" fill="#000000">provider.aws</text>
</g>
<!-- [root] module.testvpc.aws_vpc.testvpc&#45;&gt;[root] provider.aws -->
<g id="edge15" class="edge">
<title>[root] module.testvpc.aws_vpc.testvpc&#45;&gt;[root] provider.aws</title>
<path fill="none" stroke="#000000" d="M501.7571,-143.8314C532.3649,-131.8544 571.9754,-116.3546 600.8273,-105.0648"/>
<polygon fill="#000000" stroke="#000000" points="602.1338,-108.312 610.1708,-101.4086 599.583,-101.7933 602.1338,-108.312"/>
</g>
<!-- [root] var.vpccidr -->
<g id="node13" class="node">
<title>[root] var.vpccidr</title>
<polygon fill="none" stroke="#000000" points="298.4171,-36 226.2353,-36 226.2353,0 304.4171,0 304.4171,-30 298.4171,-36"/>
<polyline fill="none" stroke="#000000" points="298.4171,-36 298.4171,-30 "/>
<polyline fill="none" stroke="#000000" points="304.4171,-30 298.4171,-30 "/>
<text text-anchor="middle" x="265.3262" y="-13.8" font-family="Times,serif" font-size="14.00" fill="#000000">var.vpccidr</text>
</g>
<!-- [root] module.testvpc.var.vpccidr&#45;&gt;[root] var.vpccidr -->
<g id="edge16" class="edge">
<title>[root] module.testvpc.var.vpccidr&#45;&gt;[root] var.vpccidr</title>
<path fill="none" stroke="#000000" d="M265.3262,-71.8314C265.3262,-64.131 265.3262,-54.9743 265.3262,-46.4166"/>
<polygon fill="#000000" stroke="#000000" points="268.8263,-46.4132 265.3262,-36.4133 261.8263,-46.4133 268.8263,-46.4132"/>
</g>
<!-- [root] var.vpcname -->
<g id="node14" class="node">
<title>[root] var.vpcname</title>
<polygon fill="none" stroke="#000000" points="492.9679,-36 411.6845,-36 411.6845,0 498.9679,0 498.9679,-30 492.9679,-36"/>
<polyline fill="none" stroke="#000000" points="492.9679,-36 492.9679,-30 "/>
<polyline fill="none" stroke="#000000" points="498.9679,-30 492.9679,-30 "/>
<text text-anchor="middle" x="455.3262" y="-13.8" font-family="Times,serif" font-size="14.00" fill="#000000">var.vpcname</text>
</g>
<!-- [root] module.testvpc.var.vpcname&#45;&gt;[root] var.vpcname -->
<g id="edge17" class="edge">
<title>[root] module.testvpc.var.vpcname&#45;&gt;[root] var.vpcname</title>
<path fill="none" stroke="#000000" d="M455.3262,-71.8314C455.3262,-64.131 455.3262,-54.9743 455.3262,-46.4166"/>
<polygon fill="#000000" stroke="#000000" points="458.8263,-46.4132 455.3262,-36.4133 451.8263,-46.4133 458.8263,-46.4132"/>
</g>
<!-- [root] var.region -->
<g id="node12" class="node">
<title>[root] var.region</title>
<polygon fill="none" stroke="#000000" points="669.7031,-36 602.9492,-36 602.9492,0 675.7031,0 675.7031,-30 669.7031,-36"/>
<polyline fill="none" stroke="#000000" points="669.7031,-36 669.7031,-30 "/>
<polyline fill="none" stroke="#000000" points="675.7031,-30 669.7031,-30 "/>
<text text-anchor="middle" x="639.3262" y="-13.8" font-family="Times,serif" font-size="14.00" fill="#000000">var.region</text>
</g>
<!-- [root] provider.aws&#45;&gt;[root] var.region -->
<g id="edge21" class="edge">
<title>[root] provider.aws&#45;&gt;[root] var.region</title>
<path fill="none" stroke="#000000" d="M639.3262,-71.8314C639.3262,-64.131 639.3262,-54.9743 639.3262,-46.4166"/>
<polygon fill="#000000" stroke="#000000" points="642.8263,-46.4132 639.3262,-36.4133 635.8263,-46.4133 642.8263,-46.4132"/>
</g>
<!-- [root] meta.count&#45;boundary (EachMode fixup) -->
<g id="node15" class="node">
<title>[root] meta.count&#45;boundary (EachMode fixup)</title>
<ellipse fill="none" stroke="#000000" cx="269.3262" cy="-450" rx="174.7874" ry="18"/>
<text text-anchor="middle" x="269.3262" y="-445.8" font-family="Times,serif" font-size="14.00" fill="#000000">[root] meta.count&#45;boundary (EachMode fixup)</text>
</g>
<!-- [root] meta.count&#45;boundary (EachMode fixup)&#45;&gt;[root] module.testvpc.aws_instance.machine1 -->
<g id="edge1" class="edge">
<title>[root] meta.count&#45;boundary (EachMode fixup)&#45;&gt;[root] module.testvpc.aws_instance.machine1</title>
<path fill="none" stroke="#000000" d="M309.9343,-432.3868C332.3895,-422.6472 360.5033,-410.4533 384.4165,-400.0813"/>
<polygon fill="#000000" stroke="#000000" points="385.9128,-403.2474 393.6943,-396.0572 383.1273,-396.8255 385.9128,-403.2474"/>
</g>
<!-- [root] meta.count&#45;boundary (EachMode fixup)&#45;&gt;[root] module.testvpc.aws_route_table_association.rtpub -->
<g id="edge2" class="edge">
<title>[root] meta.count&#45;boundary (EachMode fixup)&#45;&gt;[root] module.testvpc.aws_route_table_association.rtpub</title>
<path fill="none" stroke="#000000" d="M239.6632,-432.2022C224.2032,-422.9262 205.0966,-411.4623 188.4426,-401.4698"/>
<polygon fill="#000000" stroke="#000000" points="189.8571,-398.2369 179.4814,-396.0931 186.2556,-404.2394 189.8571,-398.2369"/>
</g>
<!-- [root] meta.count&#45;boundary (EachMode fixup)&#45;&gt;[root] module.testvpc.aws_subnet.pvtsubnet -->
<g id="edge3" class="edge">
<title>[root] meta.count&#45;boundary (EachMode fixup)&#45;&gt;[root] module.testvpc.aws_subnet.pvtsubnet</title>
<path fill="none" stroke="#000000" d="M359.0392,-434.51C421.3104,-423.7581 504.7951,-409.3435 571.8603,-397.7639"/>
<polygon fill="#000000" stroke="#000000" points="572.7951,-401.1544 582.0537,-396.0039 571.604,-394.2564 572.7951,-401.1544"/>
</g>
<!-- [root] provider.aws (close) -->
<g id="node16" class="node">
<title>[root] provider.aws (close)</title>
<ellipse fill="none" stroke="#000000" cx="566.3262" cy="-450" rx="104.3276" ry="18"/>
<text text-anchor="middle" x="566.3262" y="-445.8" font-family="Times,serif" font-size="14.00" fill="#000000">[root] provider.aws (close)</text>
</g>
<!-- [root] provider.aws (close)&#45;&gt;[root] module.testvpc.aws_instance.machine1 -->
<g id="edge18" class="edge">
<title>[root] provider.aws (close)&#45;&gt;[root] module.testvpc.aws_instance.machine1</title>
<path fill="none" stroke="#000000" d="M534.9484,-432.7542C517.6453,-423.2441 495.9345,-411.3114 477.2009,-401.0151"/>
<polygon fill="#000000" stroke="#000000" points="478.7254,-397.8592 468.276,-396.1098 475.3537,-403.9937 478.7254,-397.8592"/>
</g>
<!-- [root] provider.aws (close)&#45;&gt;[root] module.testvpc.aws_route_table_association.rtpub -->
<g id="edge19" class="edge">
<title>[root] provider.aws (close)&#45;&gt;[root] module.testvpc.aws_route_table_association.rtpub</title>
<path fill="none" stroke="#000000" d="M492.2554,-437.2108C428.8853,-426.2692 336.6335,-410.3408 263.7701,-397.7601"/>
<polygon fill="#000000" stroke="#000000" points="264.0722,-394.2606 253.6225,-396.008 262.8812,-401.1585 264.0722,-394.2606"/>
</g>
<!-- [root] provider.aws (close)&#45;&gt;[root] module.testvpc.aws_subnet.pvtsubnet -->
<g id="edge20" class="edge">
<title>[root] provider.aws (close)&#45;&gt;[root] module.testvpc.aws_subnet.pvtsubnet</title>
<path fill="none" stroke="#000000" d="M595.3748,-432.5708C611.0868,-423.1436 630.6983,-411.3767 647.6836,-401.1855"/>
<polygon fill="#000000" stroke="#000000" points="649.5177,-404.1668 656.2919,-396.0206 645.9162,-398.1644 649.5177,-404.1668"/>
</g>
<!-- [root] root -->
<g id="node17" class="node">
<title>[root] root</title>
<ellipse fill="none" stroke="#000000" cx="417.3262" cy="-522" rx="46.8976" ry="18"/>
<text text-anchor="middle" x="417.3262" y="-517.8" font-family="Times,serif" font-size="14.00" fill="#000000">[root] root</text>
</g>
<!-- [root] root&#45;&gt;[root] meta.count&#45;boundary (EachMode fixup) -->
<g id="edge22" class="edge">
<title>[root] root&#45;&gt;[root] meta.count&#45;boundary (EachMode fixup)</title>
<path fill="none" stroke="#000000" d="M388.0861,-507.7751C367.1883,-497.6086 338.6618,-483.7308 314.8048,-472.1248"/>
<polygon fill="#000000" stroke="#000000" points="316.1034,-468.8643 305.5799,-467.6369 313.0411,-475.159 316.1034,-468.8643"/>
</g>
<!-- [root] root&#45;&gt;[root] provider.aws (close) -->
<g id="edge23" class="edge">
<title>[root] root&#45;&gt;[root] provider.aws (close)</title>
<path fill="none" stroke="#000000" d="M446.7638,-507.7751C468.2719,-497.3819 497.8066,-483.1101 522.1397,-471.3519"/>
<polygon fill="#000000" stroke="#000000" points="523.7022,-474.4841 531.1833,-466.9818 520.6566,-468.1814 523.7022,-474.4841"/>
</g>
</g>
</svg>
